<svg width="24" height="25" viewBox="0 0 24 25" fill="none" xmlns="http://www.w3.org/2000/svg">
<path d="M8.99927 18.3391C9.82769 18.3391 10.4993 19.0107 10.4993 19.8391C10.4993 20.6675 9.82769 21.3391 8.99927 21.3391C8.17084 21.3391 7.49927 20.6675 7.49927 19.8391C7.49927 19.0107 8.17084 18.3391 8.99927 18.3391Z" stroke="#1B1B1B" stroke-width="1.5"/>
<path d="M15.9993 18.3391C16.8277 18.3391 17.4993 19.0107 17.4993 19.8391C17.4993 20.6675 16.8277 21.3391 15.9993 21.3391C15.1708 21.3391 14.4993 20.6675 14.4993 19.8391C14.4993 19.0107 15.1708 18.3391 15.9993 18.3391Z" stroke="#1B1B1B" stroke-width="1.5"/>
<path d="M5.74927 12.3391C5.74927 10.9037 5.75086 9.90258 5.85242 9.14723C5.95107 8.41345 6.13152 8.02488 6.40828 7.74812C6.68504 7.47136 7.07361 7.29091 7.80739 7.19226C8.56274 7.0907 9.56385 7.08911 10.9993 7.08911H13.9165C15.5834 7.08911 16.753 7.0909 17.6223 7.21428C18.4708 7.33471 18.8947 7.55422 19.1747 7.88477C19.4547 8.21531 19.6016 8.66955 19.5809 9.5263C19.5597 10.404 19.3691 11.558 19.0951 13.2022C18.8924 14.4184 18.7504 15.2619 18.5622 15.8942C18.38 16.5063 18.1787 16.8302 17.9123 17.0559C17.6458 17.2816 17.2933 17.4269 16.6595 17.506C16.0049 17.5877 15.1496 17.5891 13.9165 17.5891H10.9993C9.56385 17.5891 8.56274 17.5875 7.80739 17.486C7.07361 17.3873 6.68504 17.2069 6.40828 16.9301C6.13152 16.6533 5.95107 16.2648 5.85242 15.531C5.75086 14.7756 5.74927 13.7745 5.74927 12.3391Z" stroke="#1B1B1B" stroke-width="1.5"/>
<path d="M5.74927 11.8391V5.33911C5.74927 4.23454 4.85384 3.33911 3.74927 3.33911H2.49927" stroke="#1B1B1B" stroke-width="1.5" stroke-linecap="round"/>
</svg>
