<svg width="103" height="30" viewBox="0 0 103 30" fill="none" xmlns="http://www.w3.org/2000/svg">
<path d="M19.6024 10.1055C20.0149 9.99495 20.3797 9.75179 20.6405 9.4135C20.9011 9.0752 21.0433 8.66054 21.0452 8.23345V8.22837C21.0452 7.71506 20.8413 7.22277 20.4783 6.85981C20.1153 6.49685 19.623 6.29294 19.1097 6.29294H19.1048C18.6777 6.29481 18.2631 6.43707 17.9249 6.69779C17.5867 6.95851 17.3435 7.32323 17.2331 7.73574C16.9169 8.88107 16.2336 9.89105 15.2883 10.6108C14.3429 11.3306 13.1876 11.7203 11.9994 11.7203C10.8112 11.7203 9.65586 11.3306 8.71049 10.6108C7.76511 9.89105 7.08195 8.88107 6.76576 7.73574C6.65516 7.32327 6.41198 6.9586 6.07372 6.69794C5.73545 6.43727 5.32086 6.29508 4.89382 6.29326H4.88874C4.37544 6.29326 3.88314 6.49717 3.52018 6.86013C3.15722 7.2231 2.95331 7.71538 2.95331 8.2287V8.23377C2.9552 8.66081 3.09746 9.07539 3.35818 9.41363C3.6189 9.75185 3.98361 9.99496 4.39611 10.1055C5.54144 10.4217 6.55144 11.1049 7.27117 12.0502C7.99092 12.9956 8.38069 14.151 8.38069 15.3391C8.38069 16.5273 7.99092 17.6826 7.27117 18.6281C6.55144 19.5735 5.54144 20.2566 4.39611 20.5728C3.98364 20.6834 3.61896 20.9264 3.35826 21.2647C3.09756 21.6029 2.95531 22.0174 2.95342 22.4444V22.4495C2.95342 22.9628 3.15733 23.455 3.52029 23.8181C3.88326 24.181 4.37554 24.3849 4.88885 24.3849H4.89393C5.32098 24.3831 5.73555 24.2407 6.07378 23.9801C6.412 23.7193 6.65511 23.3546 6.76565 22.9421C7.08184 21.7968 7.76502 20.7868 8.71038 20.0671C9.65575 19.3473 10.8111 18.9575 11.9993 18.9575C13.1875 18.9575 14.3428 19.3473 15.2882 20.0671C16.2335 20.7868 16.9168 21.7968 17.233 22.9421C17.3434 23.3546 17.5866 23.7194 17.9248 23.9802C18.263 24.2409 18.6777 24.3832 19.1048 24.385H19.1099C19.6231 24.385 20.1154 24.181 20.4784 23.8181C20.8413 23.4551 21.0453 22.9628 21.0453 22.4496V22.4444C21.0435 22.0173 20.9011 21.6028 20.6405 21.2645C20.3797 20.9263 20.015 20.6833 19.6025 20.5727C18.4572 20.2565 17.4472 19.5734 16.7275 18.628C16.0076 17.6825 15.6179 16.5272 15.6179 15.339C15.6179 14.1509 16.0076 12.9955 16.7275 12.0501C17.4472 11.1047 18.4572 10.4216 19.6025 10.1054L19.6024 10.1055Z" fill="url(#paint0_linear_1_26)"/>
<path d="M2.53181 4.48557C2.59407 4.54749 2.67407 4.58847 2.7607 4.60281C2.84732 4.61715 2.93626 4.60414 3.01516 4.56559C3.73496 4.21797 4.54487 4.1022 5.33323 4.23421C6.1216 4.36623 6.8496 4.73956 7.41688 5.3027C7.49509 5.3815 7.60076 5.42694 7.71175 5.42948C7.82274 5.43202 7.93039 5.39146 8.0121 5.31631C8.05271 5.27755 8.08516 5.23108 8.10754 5.1796C8.12993 5.12812 8.14179 5.07269 8.14245 5.01656C8.1431 4.96043 8.13253 4.90474 8.11135 4.85276C8.09017 4.80077 8.05882 4.75355 8.01912 4.71386C7.32735 4.02378 6.43797 3.56611 5.47433 3.40433C4.51071 3.24254 3.52062 3.38467 2.64142 3.81099C2.58156 3.84067 2.52963 3.8842 2.48996 3.93796C2.45028 3.99172 2.424 4.05417 2.41327 4.12012C2.40256 4.18607 2.40772 4.25363 2.42834 4.31718C2.44895 4.38074 2.48443 4.43847 2.53181 4.48557Z" fill="url(#paint1_linear_1_26)"/>
<path d="M0.472529 5.97804C0.04673 6.85441 -0.0966109 7.84131 0.062283 8.80261C0.221177 9.76391 0.674474 10.6522 1.35964 11.3449C1.43168 11.4207 1.52871 11.4677 1.63278 11.4774C1.73683 11.4871 1.84089 11.4588 1.9257 11.3977C1.97374 11.3614 2.01345 11.3153 2.04213 11.2623C2.07081 11.2094 2.08781 11.1509 2.09195 11.0908C2.09611 11.0307 2.08733 10.9704 2.06622 10.914C2.0451 10.8576 2.01213 10.8064 1.96954 10.7639C1.40351 10.1965 1.02795 9.46706 0.894891 8.67672C0.761835 7.88637 0.877871 7.0742 1.22692 6.35275C1.26576 6.27377 1.27899 6.18464 1.26476 6.09778C1.25054 6.01092 1.20956 5.93067 1.14755 5.86821C1.1004 5.82079 1.04264 5.78529 0.97903 5.76467C0.915423 5.74405 0.847815 5.73889 0.781816 5.74962C0.715818 5.76037 0.65333 5.78669 0.59954 5.82641C0.545751 5.86613 0.502208 5.91812 0.472529 5.97804Z" fill="url(#paint2_linear_1_26)"/>
<path d="M20.9837 26.1127C20.2637 26.4604 19.4535 26.5762 18.6649 26.4439C17.8764 26.3117 17.1483 25.9381 16.581 25.3746C16.5029 25.2962 16.3976 25.251 16.2871 25.2485C16.1764 25.2459 16.0692 25.2863 15.9876 25.3611C15.9468 25.3998 15.9142 25.4463 15.8916 25.4978C15.8692 25.5493 15.8572 25.6048 15.8564 25.6611C15.8557 25.7173 15.8662 25.7732 15.8874 25.8252C15.9086 25.8774 15.94 25.9247 15.9797 25.9644C16.6715 26.6544 17.5609 27.1121 18.5245 27.274C19.4881 27.4357 20.4782 27.2936 21.3574 26.8673C21.4173 26.8376 21.4692 26.7941 21.509 26.7403C21.5486 26.6865 21.5748 26.6241 21.5855 26.5581C21.5962 26.4921 21.591 26.4245 21.5704 26.3611C21.5498 26.2974 21.5142 26.2398 21.4668 26.1927C21.4046 26.1308 21.3246 26.0899 21.238 26.0755C21.1515 26.0612 21.0625 26.0741 20.9837 26.1127Z" fill="url(#paint3_linear_1_26)"/>
<path d="M22.0213 19.3272C21.9464 19.4087 21.906 19.5159 21.9086 19.6266C21.9111 19.7372 21.9564 19.8426 22.0348 19.9206C22.5987 20.4882 22.9724 21.217 23.1042 22.0062C23.2362 22.7955 23.1198 23.6061 22.7712 24.3264C22.7326 24.4053 22.7195 24.4943 22.7337 24.581C22.7481 24.6677 22.789 24.7479 22.851 24.8102C22.8981 24.8576 22.9558 24.893 23.0193 24.9137C23.0828 24.9344 23.1503 24.9395 23.2162 24.9289C23.2821 24.9182 23.3446 24.892 23.3983 24.8524C23.4521 24.8128 23.4957 24.7609 23.5254 24.7011C23.953 23.8217 24.0961 22.8309 23.9348 21.8665C23.7734 20.9019 23.3157 20.0117 22.6251 19.3193C22.5854 19.2795 22.538 19.248 22.4858 19.2268C22.4337 19.2055 22.3778 19.1949 22.3216 19.1957C22.2652 19.1964 22.2097 19.2084 22.1581 19.2311C22.1065 19.2536 22.06 19.2863 22.0213 19.3272Z" fill="url(#paint4_linear_1_26)"/>
<path d="M22.772 6.35331C23.1202 7.07344 23.2363 7.88391 23.1042 8.67283C22.9722 9.46176 22.5984 10.1902 22.0348 10.7577C21.9564 10.8357 21.9111 10.9411 21.9086 11.0517C21.906 11.1622 21.9464 11.2695 22.0213 11.351C22.0599 11.3918 22.1065 11.4245 22.158 11.447C22.2095 11.4695 22.265 11.4816 22.3212 11.4823C22.3775 11.483 22.4332 11.4725 22.4854 11.4513C22.5374 11.4302 22.5848 11.3988 22.6246 11.359C23.3149 10.6669 23.7728 9.77704 23.9343 8.81293C24.096 7.84884 23.9535 6.85832 23.5265 5.97893C23.4968 5.91909 23.4532 5.86722 23.3994 5.82758C23.3456 5.78794 23.2832 5.7617 23.2172 5.75103C23.1513 5.74036 23.0837 5.74556 23.0202 5.76621C22.9566 5.78685 22.899 5.82235 22.8519 5.86975C22.79 5.93205 22.749 6.0121 22.7346 6.09876C22.7204 6.18543 22.7334 6.2744 22.772 6.35331Z" fill="url(#paint5_linear_1_26)"/>
<path d="M16.5807 5.30367C17.1482 4.73991 17.8766 4.3662 18.6656 4.23413C19.4545 4.10206 20.265 4.21814 20.9851 4.56634C21.0641 4.60499 21.153 4.61807 21.2397 4.60376C21.3264 4.58946 21.4064 4.54848 21.4687 4.48654C21.5161 4.43947 21.5516 4.38177 21.5723 4.31823C21.5929 4.2547 21.5981 4.18715 21.5874 4.1212C21.5768 4.05526 21.5505 3.9928 21.5109 3.93902C21.4713 3.88524 21.4193 3.84168 21.3595 3.81196C20.4801 3.38497 19.4896 3.24239 18.5255 3.40401C17.5614 3.56563 16.6715 4.02343 15.9794 4.71385C15.9397 4.75362 15.9083 4.80094 15.8871 4.85303C15.8659 4.90514 15.8554 4.96095 15.8561 5.01717C15.8569 5.07341 15.8689 5.12893 15.8913 5.18045C15.9139 5.23198 15.9465 5.27847 15.9873 5.31717C16.0688 5.39196 16.1761 5.43232 16.2868 5.4298C16.3973 5.42728 16.5026 5.38209 16.5807 5.30367Z" fill="url(#paint6_linear_1_26)"/>
<path d="M7.41786 25.3746C6.85038 25.9383 6.12189 26.312 5.33297 26.4441C4.54403 26.5761 3.73357 26.46 3.01344 26.1118C2.93453 26.0732 2.84555 26.0602 2.75889 26.0744C2.67222 26.0888 2.59217 26.1298 2.52988 26.1917C2.48248 26.2388 2.44699 26.2965 2.42634 26.3601C2.40569 26.4236 2.40049 26.4912 2.41116 26.557C2.42184 26.623 2.44808 26.6854 2.48771 26.7392C2.52734 26.793 2.57923 26.8366 2.63905 26.8663C3.51845 27.2933 4.50896 27.4358 5.47307 27.2742C6.43718 27.1126 7.32705 26.6547 8.01913 25.9644C8.05889 25.9247 8.09029 25.8772 8.11147 25.8252C8.13263 25.7731 8.14316 25.7173 8.14242 25.6611C8.14167 25.6048 8.12968 25.5493 8.10713 25.4978C8.08458 25.4463 8.05194 25.3997 8.01114 25.3611C7.92966 25.2862 7.82238 25.2459 7.71178 25.2483C7.60119 25.2509 7.49585 25.2961 7.41786 25.3746Z" fill="url(#paint7_linear_1_26)"/>
<path d="M1.22661 24.325C0.878358 23.6048 0.762243 22.7944 0.894296 22.0055C1.02635 21.2165 1.40006 20.488 1.96383 19.9206C2.04224 19.8425 2.08745 19.7372 2.08996 19.6266C2.09248 19.516 2.05211 19.4087 1.97733 19.3272C1.93862 19.2864 1.89213 19.2538 1.84061 19.2312C1.78908 19.2087 1.73357 19.1967 1.67734 19.196C1.62111 19.1952 1.56529 19.2058 1.5132 19.227C1.46111 19.2481 1.41378 19.2796 1.37401 19.3193C0.683594 20.0114 0.225788 20.9013 0.0641672 21.8654C-0.0974542 22.8295 0.0451269 23.82 0.472114 24.6994C0.501837 24.7592 0.545397 24.8112 0.599177 24.8508C0.652958 24.8904 0.715412 24.9167 0.781361 24.9272C0.847309 24.9379 0.914855 24.9328 0.97839 24.9121C1.04193 24.8915 1.09962 24.856 1.1467 24.8086C1.20863 24.7463 1.2496 24.6662 1.26393 24.5795C1.27825 24.4929 1.26521 24.4039 1.22661 24.325Z" fill="url(#paint8_linear_1_26)"/>
<path d="M35.4993 23.8391H30.1129V6.38457H35.7379C37.4311 6.38457 38.8799 6.734 40.0845 7.43286C41.289 8.12604 42.2123 9.1232 42.8544 10.4243C43.4964 11.7198 43.8175 13.2709 43.8175 15.0777C43.8175 16.8959 43.4936 18.4613 42.8459 19.7738C42.1981 21.0806 41.2549 22.0863 40.0163 22.7908C38.7777 23.4897 37.272 23.8391 35.4993 23.8391ZM32.2265 21.9641H35.3629C36.8061 21.9641 38.0021 21.6857 38.951 21.1289C39.8998 20.5721 40.6072 19.7795 41.0731 18.751C41.539 17.7226 41.772 16.4982 41.772 15.0777C41.772 13.6687 41.5419 12.4556 41.0817 11.4385C40.6214 10.4158 39.9339 9.63172 39.0192 9.08627C38.1044 8.53513 36.9652 8.25957 35.6015 8.25957H32.2265V21.9641ZM47.0902 23.8391V10.7482H49.0334V12.7255H49.1697C49.4084 12.0777 49.8402 11.5522 50.4652 11.1488C51.0902 10.7454 51.7947 10.5437 52.5788 10.5437C52.7265 10.5437 52.9112 10.5465 53.1328 10.5522C53.3544 10.5579 53.522 10.5664 53.6356 10.5777V12.6232C53.5674 12.6062 53.4112 12.5806 53.1669 12.5465C52.9282 12.5067 52.6754 12.4868 52.4084 12.4868C51.772 12.4868 51.2038 12.6204 50.7038 12.8874C50.2095 13.1488 49.8174 13.5124 49.5277 13.9783C49.2436 14.4385 49.1015 14.9641 49.1015 15.555V23.8391H47.0902ZM60.9396 24.1118C59.7578 24.1118 58.7209 23.8306 57.8288 23.2681C56.9424 22.7056 56.2493 21.9187 55.7493 20.9073C55.2549 19.8959 55.0078 18.7141 55.0078 17.3618C55.0078 15.9982 55.2549 14.8079 55.7493 13.7908C56.2493 12.7738 56.9424 11.984 57.8288 11.4215C58.7209 10.859 59.7578 10.5777 60.9396 10.5777C62.1214 10.5777 63.1555 10.859 64.0419 11.4215C64.9339 11.984 65.6271 12.7738 66.1214 13.7908C66.6214 14.8079 66.8714 15.9982 66.8714 17.3618C66.8714 18.7141 66.6214 19.8959 66.1214 20.9073C65.6271 21.9187 64.9339 22.7056 64.0419 23.2681C63.1555 23.8306 62.1214 24.1118 60.9396 24.1118ZM60.9396 22.305C61.8373 22.305 62.576 22.0749 63.1555 21.6147C63.7351 21.1545 64.164 20.5493 64.4425 19.7993C64.7209 19.0493 64.8601 18.2368 64.8601 17.3618C64.8601 16.4868 64.7209 15.6715 64.4425 14.9158C64.164 14.1601 63.7351 13.5493 63.1555 13.0834C62.576 12.6175 61.8373 12.3846 60.9396 12.3846C60.0419 12.3846 59.3032 12.6175 58.7237 13.0834C58.1442 13.5493 57.7152 14.1601 57.4368 14.9158C57.1584 15.6715 57.0192 16.4868 57.0192 17.3618C57.0192 18.2368 57.1584 19.0493 57.4368 19.7993C57.7152 20.5493 58.1442 21.1545 58.7237 21.6147C59.3032 22.0749 60.0419 22.305 60.9396 22.305ZM71.9531 15.9641V23.8391H69.9417V10.7482H71.8849V12.7937H72.0554C72.3622 12.1289 72.8281 11.5948 73.4531 11.1914C74.0781 10.7823 74.8849 10.5777 75.8736 10.5777C76.7599 10.5777 77.5355 10.7596 78.2003 11.1232C78.865 11.4812 79.3821 12.0266 79.7514 12.7596C80.1207 13.4868 80.3054 14.4073 80.3054 15.5209V23.8391H78.294V15.6573C78.294 14.6289 78.027 13.8277 77.4929 13.2539C76.9588 12.6743 76.2258 12.3846 75.294 12.3846C74.652 12.3846 74.0781 12.5238 73.5724 12.8022C73.0724 13.0806 72.6775 13.4868 72.3878 14.0209C72.098 14.555 71.9531 15.2027 71.9531 15.9641ZM89.4694 24.1118C88.2081 24.1118 87.12 23.8334 86.2052 23.2766C85.2961 22.7141 84.5944 21.93 84.1001 20.9243C83.6115 19.913 83.3672 18.7368 83.3672 17.3959C83.3672 16.055 83.6115 14.8732 84.1001 13.8505C84.5944 12.8221 85.2819 12.0209 86.1626 11.4471C87.049 10.8675 88.0831 10.5777 89.2649 10.5777C89.9467 10.5777 90.62 10.6914 91.2848 10.9187C91.9496 11.1459 92.5547 11.5152 93.1001 12.0266C93.6456 12.5323 94.0802 13.2027 94.4041 14.038C94.728 14.8732 94.8899 15.9016 94.8899 17.1232V17.9755H84.799V16.2368H92.8444C92.8444 15.4982 92.6967 14.8391 92.4013 14.2596C92.1115 13.68 91.6967 13.2226 91.1569 12.8874C90.6228 12.5522 89.9922 12.3846 89.2649 12.3846C88.4638 12.3846 87.7706 12.5834 87.1853 12.9812C86.6058 13.3732 86.1598 13.8846 85.8473 14.5152C85.5348 15.1459 85.3785 15.8221 85.3785 16.5437V17.7027C85.3785 18.6914 85.549 19.5295 85.8899 20.217C86.2365 20.8988 86.7166 21.4187 87.3302 21.7766C87.9439 22.1289 88.6569 22.305 89.4694 22.305C89.9978 22.305 90.4751 22.2312 90.9013 22.0834C91.3331 21.93 91.7052 21.7027 92.0177 21.4016C92.3302 21.0948 92.5717 20.7141 92.7422 20.2596L94.6853 20.805C94.4808 21.4641 94.1371 22.0437 93.6541 22.5437C93.1711 23.038 92.5746 23.4243 91.8643 23.7027C91.1541 23.9755 90.3558 24.1118 89.4694 24.1118ZM99.4155 23.9755C98.995 23.9755 98.6342 23.8249 98.3331 23.5238C98.0319 23.2226 97.8814 22.8618 97.8814 22.4414C97.8814 22.0209 98.0319 21.6601 98.3331 21.359C98.6342 21.0579 98.995 20.9073 99.4155 20.9073C99.8359 20.9073 100.197 21.0579 100.498 21.359C100.799 21.6601 100.95 22.0209 100.95 22.4414C100.95 22.7198 100.879 22.9755 100.736 23.2084C100.6 23.4414 100.415 23.6289 100.183 23.7709C99.9552 23.9073 99.6996 23.9755 99.4155 23.9755Z" fill="black"/>
<defs>
<linearGradient id="paint0_linear_1_26" x1="11.9993" y1="26.0314" x2="11.9993" y2="11.9196" gradientUnits="userSpaceOnUse">
<stop offset="0.005" stop-color="#3F51DC"/>
<stop offset="1" stop-color="#2AC3D1"/>
</linearGradient>
<linearGradient id="paint1_linear_1_26" x1="5.27515" y1="26.0372" x2="5.27515" y2="11.9218" gradientUnits="userSpaceOnUse">
<stop offset="0.005" stop-color="#3F51DC"/>
<stop offset="1" stop-color="#2AC3D1"/>
</linearGradient>
<linearGradient id="paint2_linear_1_26" x1="1.04611" y1="26.0293" x2="1.04611" y2="11.9209" gradientUnits="userSpaceOnUse">
<stop offset="0.005" stop-color="#3F51DC"/>
<stop offset="1" stop-color="#2AC3D1"/>
</linearGradient>
<linearGradient id="paint3_linear_1_26" x1="18.7237" y1="26.0302" x2="18.7237" y2="11.9167" gradientUnits="userSpaceOnUse">
<stop offset="0.005" stop-color="#3F51DC"/>
<stop offset="1" stop-color="#2AC3D1"/>
</linearGradient>
<linearGradient id="paint4_linear_1_26" x1="22.9538" y1="26.0303" x2="22.9538" y2="11.9191" gradientUnits="userSpaceOnUse">
<stop offset="0.005" stop-color="#3F51DC"/>
<stop offset="1" stop-color="#2AC3D1"/>
</linearGradient>
<linearGradient id="paint5_linear_1_26" x1="22.9538" y1="26.0306" x2="22.9538" y2="11.9183" gradientUnits="userSpaceOnUse">
<stop offset="0.005" stop-color="#3F51DC"/>
<stop offset="1" stop-color="#2AC3D1"/>
</linearGradient>
<linearGradient id="paint6_linear_1_26" x1="18.7244" y1="26.0378" x2="18.7244" y2="11.9215" gradientUnits="userSpaceOnUse">
<stop offset="0.005" stop-color="#3F51DC"/>
<stop offset="1" stop-color="#2AC3D1"/>
</linearGradient>
<linearGradient id="paint7_linear_1_26" x1="5.2741" y1="26.0302" x2="5.2741" y2="11.9158" gradientUnits="userSpaceOnUse">
<stop offset="0.005" stop-color="#3F51DC"/>
<stop offset="1" stop-color="#2AC3D1"/>
</linearGradient>
<linearGradient id="paint8_linear_1_26" x1="1.04473" y1="26.0284" x2="1.04473" y2="11.9217" gradientUnits="userSpaceOnUse">
<stop offset="0.005" stop-color="#3F51DC"/>
<stop offset="1" stop-color="#2AC3D1"/>
</linearGradient>
</defs>
</svg>
