<svg width="12" height="13" viewBox="0 0 12 13" fill="none" xmlns="http://www.w3.org/2000/svg">
<path fill-rule="evenodd" clip-rule="evenodd" d="M11.962 6.17524C11.962 9.43225 9.3217 12.0726 6.06469 12.0726C2.80768 12.0726 0.167348 9.43225 0.167348 6.17524C0.167348 2.91823 2.80768 0.277893 6.06469 0.277893C9.3217 0.277893 11.962 2.91823 11.962 6.17524Z" fill="url(#paint0_linear_1_90)"/>
<path d="M0.216886 6.94149H4.7721V8.22568L6.37532 8.39591V6.94149L7.1778 6.94364C7.59596 6.94364 7.81991 6.98337 7.81991 7.58399V8.38691H9.4234V7.10242C9.4234 5.55952 8.64571 5.01654 7.33767 5.01654H6.37519V4.05475H4.77183V5.01654L0.281469 5.01654C0.206819 5.39123 0.16738 5.7786 0.16738 6.17522C0.16737 6.43144 0.183907 6.6874 0.216886 6.94149Z" fill="white"/>
<defs>
<linearGradient id="paint0_linear_1_90" x1="12.0695" y1="6.17524" x2="-0.335579" y2="6.17524" gradientUnits="userSpaceOnUse">
<stop stop-color="#00B2FF"/>
<stop offset="1" stop-color="#006AFF"/>
</linearGradient>
</defs>
</svg>
