<svg width="56" height="15" viewBox="0 0 56 15" fill="none" xmlns="http://www.w3.org/2000/svg">
<path fill-rule="evenodd" clip-rule="evenodd" d="M26.9673 2.19082C27.3219 2.18208 27.6189 2.38989 27.6306 2.65497C27.6675 3.49285 27.7054 5.14739 27.7344 6.41232L27.7363 6.492C27.7434 6.80324 27.7499 7.08849 27.7558 7.32972C27.7763 7.48626 27.7855 7.63685 27.7855 7.77673C27.7855 7.97161 27.785 8.11033 27.7795 8.15748L27.7795 8.15796C27.7792 8.15983 27.7788 8.16406 27.7779 8.17C27.7781 8.17136 27.7784 8.17272 27.7787 8.17408C27.8301 8.4365 27.5873 8.68042 27.2362 8.71889C25.7395 8.88287 24.6113 8.86619 23.771 8.71409C22.9201 8.56006 22.33 8.25907 21.9974 7.84692C21.6706 7.44207 21.6511 7.00257 21.7415 6.65131C21.8294 6.31007 22.036 5.9913 22.2787 5.79498C22.9719 5.23422 24.0503 4.70807 25.2555 4.81936C25.7201 4.86226 26.1049 4.99277 26.4205 5.17451C26.3973 4.21766 26.3716 3.25798 26.3464 2.68662C26.3347 2.42153 26.6127 2.19956 26.9673 2.19082ZM26.4721 7.38719C26.4256 7.06484 26.3205 6.72626 26.1423 6.44088C25.8932 6.04179 25.5524 5.81455 25.098 5.77258C24.4874 5.7162 23.7903 5.98745 23.2224 6.44682C23.1722 6.48744 23.0549 6.63209 23.0033 6.83282C22.9542 7.02352 22.9795 7.20452 23.0975 7.35075C23.2097 7.48968 23.4643 7.67035 24.0734 7.7806C24.6062 7.87704 25.3809 7.91291 26.4834 7.82296C26.48 7.70503 26.4762 7.55747 26.4721 7.38719Z" fill="#FFE392"/>
<path fill-rule="evenodd" clip-rule="evenodd" d="M36.9746 2.19082C37.3293 2.18208 37.6262 2.38989 37.6379 2.65497C37.6749 3.49285 37.7128 5.14739 37.7418 6.41232L37.7436 6.492C37.7507 6.80324 37.7573 7.08849 37.7631 7.32972C37.7836 7.48626 37.7928 7.63685 37.7928 7.77673C37.7928 7.97161 37.7923 8.11033 37.7868 8.15748L37.7868 8.15796C37.7866 8.15983 37.7861 8.16406 37.7852 8.17C37.7855 8.17136 37.7857 8.17272 37.786 8.17408C37.8375 8.4365 37.5946 8.68042 37.2435 8.71889C35.7469 8.88287 34.6186 8.86619 33.7783 8.71409C32.9274 8.56006 32.3374 8.25907 32.0047 7.84692C31.6779 7.44207 31.6584 7.00257 31.7488 6.65131C31.8367 6.31007 32.0434 5.9913 32.286 5.79498C32.9792 5.23422 34.0576 4.70807 35.2628 4.81936C35.7274 4.86226 36.1122 4.99277 36.4278 5.17451C36.4047 4.21766 36.3789 3.25798 36.3537 2.68662C36.342 2.42153 36.62 2.19956 36.9746 2.19082ZM36.4794 7.38719C36.433 7.06484 36.3278 6.72626 36.1497 6.44088C35.9005 6.04179 35.5597 5.81455 35.1053 5.77258C34.4947 5.7162 33.7976 5.98745 33.2297 6.44682C33.1795 6.48744 33.0622 6.63209 33.0106 6.83282C32.9615 7.02352 32.9868 7.20452 33.1049 7.35075C33.217 7.48968 33.4717 7.67035 34.0807 7.7806C34.6135 7.87704 35.3883 7.91291 36.4907 7.82296C36.4874 7.70503 36.4836 7.55747 36.4794 7.38719Z" fill="#FFE392"/>
<path fill-rule="evenodd" clip-rule="evenodd" d="M42.5933 5.5812C42.5923 5.57482 42.5911 5.56844 42.5898 5.56208C42.5871 5.54897 42.5836 5.53441 42.5791 5.51905C42.5716 5.49385 42.5522 5.43356 42.5016 5.36799C42.4722 5.32984 42.3995 5.24924 42.2686 5.19C42.0295 5.00493 41.6666 4.74626 41.2568 4.59723C40.9855 4.49854 40.627 4.42227 40.2344 4.48867C39.8304 4.55701 39.5134 4.75515 39.2767 5.02507C38.9337 5.4163 38.7136 5.91747 38.6035 6.40551C38.493 6.89497 38.4832 7.41498 38.6082 7.85618C38.6999 8.18001 38.9412 8.48771 39.3403 8.67281C39.7593 8.86709 40.2714 8.88782 40.7618 8.73053C41.3058 8.55603 41.6788 8.23127 41.9287 7.9043C42.0769 8.16873 42.269 8.42667 42.5208 8.65536C42.745 8.85905 43.1522 8.89103 43.4303 8.72678C43.7084 8.56254 43.752 8.26427 43.5278 8.06058C43.1459 7.71368 42.9304 7.20975 42.8041 6.6913C42.7234 6.35991 42.651 6.03769 42.6049 5.71731C42.6049 5.7168 42.6045 5.7104 42.6036 5.69174L42.6035 5.68993C42.6026 5.67069 42.6009 5.63412 42.5958 5.59781C42.5951 5.59284 42.5943 5.58727 42.5933 5.5812ZM41.2108 5.75304C41.034 5.6234 40.8537 5.50857 40.6815 5.44593C40.6259 5.42572 40.5856 5.41677 40.5595 5.41329C40.5359 5.41015 40.5266 5.41174 40.5256 5.41193L40.5255 5.41193C40.5244 5.41212 40.522 5.41258 40.5176 5.41415C40.5131 5.41577 40.5043 5.41931 40.4916 5.42663C40.4657 5.44153 40.4211 5.47338 40.3653 5.53708C40.146 5.78713 39.9714 6.15446 39.8798 6.56008C39.7886 6.96427 39.7897 7.36307 39.8748 7.66373C39.911 7.79153 39.9887 7.85199 40.0323 7.87222C40.0526 7.88161 40.0726 7.88644 40.0969 7.88744C40.122 7.88848 40.1696 7.88603 40.2428 7.86255C40.4577 7.79363 40.6644 7.63655 40.8394 7.38744C41.0116 7.14248 41.1204 6.85334 41.1714 6.60267C41.2036 6.4444 41.2059 6.29093 41.2088 6.10283C41.2097 6.04486 41.2106 5.98361 41.2125 5.91792C41.2124 5.92219 41.2122 5.92681 41.2106 5.87827C41.2096 5.84614 41.2087 5.80114 41.2108 5.75304Z" fill="#FFE392"/>
<path fill-rule="evenodd" clip-rule="evenodd" d="M44.2255 4.46757C44.5866 4.43392 44.9162 4.62238 44.9619 4.88852C45.1144 5.77781 45.3456 6.66659 45.6915 7.5354C45.6934 7.5402 45.6962 7.54784 45.6999 7.55795C45.7179 7.60751 45.7576 7.71655 45.823 7.84339C45.831 7.85888 45.8391 7.87392 45.8471 7.88844C46.8589 7.5201 47.4981 7.03253 47.6793 6.59795C47.8049 6.29687 47.8086 5.96178 47.7658 5.59156C47.7429 5.51559 47.7213 5.43885 47.7018 5.36161C47.682 5.28311 47.6684 5.12213 47.6649 5.04466C47.6638 5.02273 47.6629 4.99384 47.664 4.96682L47.664 4.96613C47.6643 4.95698 47.6656 4.9242 47.6743 4.88643C47.6744 4.88633 47.6744 4.88614 47.6745 4.88584C47.6761 4.87791 47.6923 4.79957 47.7582 4.71756C47.7889 4.67952 47.9078 4.54148 48.165 4.49383C48.4665 4.43796 48.6869 4.54982 48.7715 4.60698C48.8533 4.6622 48.8955 4.71909 48.9095 4.73857C48.9282 4.76465 48.94 4.78682 48.9463 4.79939C48.959 4.82472 48.9665 4.84598 48.9699 4.85606C48.9773 4.87814 48.9824 4.89875 48.9855 4.91215C48.9922 4.94133 48.9991 4.97782 49.0062 5.01984C49.0288 5.15208 49.0528 5.29462 49.0718 5.44422C49.1117 5.57091 49.157 5.70025 49.2051 5.83449C49.2172 5.86829 49.2295 5.90252 49.2419 5.93711C49.3113 6.12983 49.3847 6.3337 49.4463 6.53762C49.6255 7.13127 49.7407 7.73285 49.8517 8.31263C49.8877 8.50028 49.9232 8.68566 49.9603 8.86774C50.0578 9.34654 50.2111 9.81978 50.3731 10.3196C50.3975 10.3948 50.4221 10.4707 50.4467 10.5472C50.4687 10.6159 50.4897 10.6793 50.5093 10.7387C50.6494 11.1636 50.7206 11.3797 50.6481 11.7866C50.5835 12.1498 50.4221 12.4642 50.1414 12.7091C49.8562 12.9578 49.4892 13.0985 49.104 13.1625C48.3755 13.2834 47.5473 13.1366 46.8528 12.9517C46.1331 12.7601 45.4329 12.4929 44.9129 12.2811C44.7308 12.207 44.5638 12.1368 44.4281 12.0797C44.3712 12.0558 44.3198 12.0341 44.2751 12.0155C44.2001 11.9843 44.1477 11.963 44.1128 11.9498C43.8485 11.8893 43.6544 11.7093 43.6494 11.4941C43.6431 11.2259 43.933 11.0047 44.2968 11.0001C44.3959 10.9989 44.4732 11.0143 44.5009 11.02C44.5381 11.0277 44.5692 11.0365 44.5899 11.0426C44.6315 11.055 44.6713 11.0693 44.7024 11.0809C44.7662 11.1048 44.8435 11.1365 44.9234 11.1698C44.9758 11.1916 45.0318 11.2151 45.0916 11.2403C45.2244 11.2962 45.3761 11.36 45.5499 11.4308C46.051 11.6347 46.6792 11.8727 47.3003 12.038C47.9467 12.21 48.4719 12.2717 48.8144 12.2148C48.9647 12.1898 49.0627 12.145 49.1349 12.082C49.2117 12.015 49.3004 11.8913 49.3415 11.6603C49.3809 11.4389 49.3673 11.3969 49.2245 10.957C49.2066 10.9018 49.1866 10.8402 49.1644 10.7712C49.1407 10.6977 49.1167 10.6236 49.0925 10.5491C48.9315 10.0525 48.7636 9.53517 48.6571 9.01199C48.6162 8.81116 48.5784 8.614 48.5411 8.41942C48.4908 8.15688 48.4414 7.89904 48.3864 7.64325C47.8724 8.12768 47.1114 8.52673 46.2797 8.81288C46.2575 8.82051 46.1469 8.85685 46.0212 8.8877C45.96 8.90272 45.8721 8.92223 45.7785 8.9334C45.732 8.93896 45.6642 8.94494 45.5867 8.94248C45.5191 8.94034 45.3777 8.93026 45.2318 8.86502C45.0127 8.76705 44.8757 8.61504 44.7994 8.5185C44.7125 8.40846 44.6433 8.28947 44.5912 8.18856C44.4882 7.98876 44.4207 7.79313 44.427 7.80895C44.0577 6.88113 43.814 5.9403 43.6545 5.01039C43.6089 4.74425 43.8645 4.50123 44.2255 4.46757ZM45.9714 8.0667C45.9714 8.06671 45.9712 8.06656 45.9709 8.06624C45.9712 8.06654 45.9714 8.0667 45.9714 8.0667Z" fill="#FFE392"/>
<path fill-rule="evenodd" clip-rule="evenodd" d="M9.01463 4.9772C9.04264 4.96627 9.07335 4.95627 9.10688 4.94784C9.5017 4.84858 9.75875 5.05717 9.8062 5.10079C9.87034 5.15975 9.90013 5.21614 9.90784 5.23073L9.90799 5.23102C9.92007 5.25387 9.92747 5.27287 9.93127 5.28319C9.93903 5.30426 9.94359 5.32193 9.94572 5.33049C9.95039 5.34935 9.95373 5.36765 9.956 5.38099C9.96087 5.4096 9.96608 5.44697 9.97177 5.49245C9.99043 5.64152 10.0099 5.79979 10.0251 5.96412C10.0586 6.10962 10.0965 6.25714 10.1364 6.40868C10.1463 6.44625 10.1563 6.48416 10.1665 6.52235C10.2226 6.73442 10.281 6.95526 10.3301 7.17628C10.4735 7.82263 10.5655 8.47551 10.655 9.11178C10.6843 9.31931 10.7132 9.52507 10.7437 9.72827C10.8019 10.1172 10.8802 10.4013 10.9707 10.7294C11.024 10.9227 11.0815 11.1312 11.1416 11.3855C11.2963 12.0399 11.3601 12.4296 11.2995 12.8932C11.2016 13.6413 10.7975 14.1959 10.0051 14.3748C9.32575 14.5282 8.58475 14.338 8.02222 14.1344C7.42505 13.9182 6.84935 13.6187 6.42804 13.3854C6.27999 13.3034 6.14336 13.2253 6.0334 13.1624C5.98771 13.1362 5.94663 13.1127 5.91124 13.0927C5.85927 13.0632 5.82235 13.0428 5.79697 13.0293C5.57795 12.9544 5.42323 12.7891 5.41739 12.5946C5.40929 12.3248 5.69085 12.1011 6.04626 12.095C6.17233 12.0928 6.26798 12.1193 6.29683 12.1275C6.33851 12.1393 6.37197 12.1521 6.39223 12.1603C6.43333 12.177 6.47061 12.1953 6.49693 12.2087C6.55184 12.2367 6.61681 12.2729 6.68131 12.3095C6.72447 12.3339 6.77014 12.36 6.81873 12.3879C6.92575 12.4491 7.04697 12.5185 7.18674 12.5959C7.59101 12.8197 8.08939 13.0759 8.57639 13.2523C9.09805 13.4411 9.45132 13.4802 9.63799 13.4381C9.71151 13.4215 9.94521 13.3555 10.0184 12.7966C10.0603 12.476 10.0259 12.1991 9.87445 11.5581C9.82799 11.3616 9.77692 11.1748 9.72591 10.9883C9.62715 10.6272 9.52865 10.267 9.4645 9.83866C9.43189 9.6209 9.40161 9.40597 9.37162 9.19305C9.33072 8.9027 9.29035 8.61611 9.24531 8.33119C9.21468 8.35674 9.18369 8.38183 9.15245 8.40639C8.77923 8.69982 8.27199 8.99625 7.69331 9.16424C7.10541 9.3349 6.39987 9.3826 5.71983 9.10882C5.05412 8.84082 4.53352 8.31248 4.16152 7.53074L4.1475 7.50128L4.13855 7.4707C3.96743 6.88602 4.01784 6.00103 4.89686 5.39551C5.71631 4.83103 7.05754 4.64699 9.01463 4.9772ZM8.7443 6.07682C8.7332 6.02718 8.72251 5.97731 8.71235 5.92725C6.95166 5.63245 6.12724 5.86767 5.76199 6.11927C5.37048 6.38896 5.28151 6.83327 5.38709 7.22934C5.69582 7.86343 6.04943 8.13527 6.323 8.24541C6.58661 8.35154 6.88722 8.3519 7.23348 8.25139C7.58895 8.14819 7.94386 7.9496 8.22632 7.72753C8.36513 7.61839 8.47671 7.51115 8.55567 7.41898C8.59499 7.37307 8.62361 7.33395 8.64303 7.30293C8.65263 7.2876 8.65921 7.27547 8.66352 7.26656C8.66764 7.25804 8.66898 7.25392 8.66898 7.25392L8.66897 7.25397C8.77925 6.89416 8.78064 6.4976 8.7443 6.07682Z" fill="#FFE392"/>
<path fill-rule="evenodd" clip-rule="evenodd" d="M12.6329 4.69379C13.0476 4.61645 13.481 4.63663 13.825 4.65773L13.8556 4.65961L13.8858 4.6636C14.319 4.72093 14.6355 4.85975 14.8663 5.04343C15.0485 5.18845 15.1641 5.35662 15.2257 5.44612C15.2338 5.45795 15.241 5.46841 15.2473 5.47726C15.7022 6.11885 15.9685 6.84332 15.6656 7.64455C15.5503 7.94961 15.322 8.26932 15.0211 8.53494C14.7237 8.79746 14.3087 9.04751 13.7965 9.1434C13.1371 9.26685 12.5472 9.09479 12.1217 8.89152C11.7278 8.70338 11.2265 8.3937 11.0167 7.93824C10.7835 7.43199 10.885 6.85915 10.9952 6.46491C11.0035 6.43513 11.0123 6.4026 11.0217 6.368C11.0561 6.24138 11.0979 6.08714 11.1501 5.93963C11.2167 5.75111 11.3135 5.53131 11.4727 5.33658C11.7688 4.97449 12.1792 4.77841 12.6329 4.69379ZM12.9511 5.63467C12.8087 5.66123 12.6957 5.71001 12.5894 5.84004C12.5267 5.91665 12.4682 6.03127 12.4136 6.18592C12.372 6.30351 12.3404 6.41986 12.3072 6.54217C12.2965 6.58146 12.2856 6.62135 12.2742 6.66211C12.1722 7.02709 12.1399 7.37941 12.2527 7.62424C12.3195 7.76925 12.52 7.92831 12.8284 8.07565C13.0958 8.2034 13.307 8.23458 13.4771 8.20273C13.6348 8.17321 13.8308 8.07875 14.0214 7.91044C14.2086 7.74525 14.3453 7.54785 14.4079 7.38233C14.5889 6.90351 14.4551 6.44222 14.0914 5.92926C14.0804 5.91371 14.0702 5.89933 14.0608 5.88599C13.9912 5.78727 13.9616 5.74541 13.9112 5.70527C13.8803 5.68067 13.8257 5.64454 13.6833 5.62248C13.3527 5.60299 13.1266 5.60193 12.9511 5.63467Z" fill="#FFE392"/>
<path fill-rule="evenodd" clip-rule="evenodd" d="M18.0427 4.69379C18.4573 4.61645 18.8907 4.63663 19.2347 4.65773L19.2653 4.65961L19.2955 4.6636C19.7287 4.72093 20.0452 4.85975 20.276 5.04343C20.4582 5.18845 20.5739 5.35662 20.6354 5.44612C20.6435 5.45795 20.6507 5.46841 20.657 5.47726C21.1119 6.11885 21.3782 6.84332 21.0753 7.64455C20.96 7.94961 20.7317 8.26932 20.4308 8.53494C20.1334 8.79746 19.7184 9.04751 19.2062 9.1434C18.5468 9.26685 17.9569 9.09479 17.5314 8.89152C17.1376 8.70338 16.6363 8.3937 16.4265 7.93824C16.1932 7.43199 16.2947 6.85915 16.4049 6.46491C16.4133 6.43513 16.4221 6.4026 16.4315 6.368C16.4658 6.24138 16.5076 6.08714 16.5598 5.93963C16.6264 5.75111 16.7233 5.53131 16.8825 5.33658C17.1785 4.97449 17.5889 4.77841 18.0427 4.69379ZM18.3609 5.63467C18.2184 5.66123 18.1054 5.71001 17.9991 5.84004C17.9365 5.91665 17.878 6.03127 17.8233 6.18592C17.7817 6.30351 17.7501 6.41986 17.7169 6.54217C17.7062 6.58146 17.6954 6.62135 17.684 6.66211C17.5819 7.02709 17.5497 7.37941 17.6624 7.62424C17.7293 7.76925 17.9297 7.92831 18.2381 8.07565C18.5055 8.2034 18.7168 8.23458 18.8869 8.20273C19.0446 8.17321 19.2405 8.07875 19.4312 7.91044C19.6183 7.74525 19.7551 7.54785 19.8176 7.38233C19.9987 6.90351 19.8649 6.44222 19.5011 5.92926C19.4901 5.91371 19.48 5.89933 19.4705 5.88599C19.4009 5.78727 19.3714 5.74541 19.3209 5.70527C19.29 5.68067 19.2354 5.64454 19.093 5.62248C18.7624 5.60299 18.5364 5.60193 18.3609 5.63467Z" fill="#FFE392"/>
<path fill-rule="evenodd" clip-rule="evenodd" d="M51.525 0.189283C51.7326 0.222147 51.8652 0.374392 51.8212 0.529333C51.641 1.16339 51.471 1.79731 51.3106 2.43466C51.2715 2.59033 51.0707 2.69283 50.8621 2.6636C50.6536 2.63437 50.5163 2.48448 50.5554 2.32882C50.7169 1.68696 50.8881 1.04865 51.0695 0.410324C51.1135 0.255383 51.3175 0.15642 51.525 0.189283Z" fill="#FFE392"/>
<path fill-rule="evenodd" clip-rule="evenodd" d="M54.4408 1.45989C54.5752 1.58248 54.5509 1.76316 54.3867 1.86345L52.2009 3.19806C52.0366 3.29834 51.7946 3.28025 51.6602 3.15765C51.5259 3.03506 51.5501 2.85438 51.7143 2.7541L53.9002 1.41948C54.0644 1.3192 54.3065 1.33729 54.4408 1.45989Z" fill="#FFE392"/>
<path fill-rule="evenodd" clip-rule="evenodd" d="M52.088 3.87959C52.1114 3.72217 52.3014 3.60874 52.5123 3.62623L54.8175 3.81742C55.0284 3.83491 55.1804 3.9767 55.1569 4.13412C55.1335 4.29154 54.9436 4.40498 54.7327 4.38749L52.4274 4.19629C52.2165 4.1788 52.0646 4.03701 52.088 3.87959Z" fill="#FFE392"/>
<path fill-rule="evenodd" clip-rule="evenodd" d="M3.72436 0.189283C3.51679 0.222147 3.38421 0.374392 3.42824 0.529333C3.60841 1.16339 3.77843 1.79731 3.93874 2.43466C3.9779 2.59033 4.1787 2.69283 4.38725 2.6636C4.59579 2.63437 4.73311 2.48448 4.69396 2.32882C4.53251 1.68696 4.3613 1.04865 4.17992 0.410324C4.13589 0.255383 3.93193 0.15642 3.72436 0.189283Z" fill="#FFE392"/>
<path fill-rule="evenodd" clip-rule="evenodd" d="M0.808559 1.45989C0.674213 1.58248 0.698449 1.76316 0.862691 1.86345L3.04854 3.19806C3.21278 3.29834 3.45483 3.28025 3.58918 3.15765C3.72353 3.03506 3.69929 2.85438 3.53505 2.7541L1.3492 1.41948C1.18496 1.3192 0.942905 1.33729 0.808559 1.45989Z" fill="#FFE392"/>
<path fill-rule="evenodd" clip-rule="evenodd" d="M3.16143 3.87959C3.138 3.72217 2.94804 3.60874 2.73715 3.62623L0.431933 3.81742C0.221041 3.83491 0.0690751 3.9767 0.0925076 4.13412C0.11594 4.29154 0.305897 4.40498 0.516789 4.38749L2.82201 4.19629C3.0329 4.1788 3.18487 4.03701 3.16143 3.87959Z" fill="#FFE392"/>
</svg>
