<svg width="12" height="13" viewBox="0 0 12 13" fill="none" xmlns="http://www.w3.org/2000/svg">
<path d="M6.0647 4.64361C7.15037 4.64361 8.03072 5.52349 8.03072 6.60916C8.03072 7.69483 7.15037 8.57518 6.0647 8.57518C4.97903 8.57518 4.09868 7.69483 4.09868 6.60916C4.09868 5.52349 4.97903 4.64361 6.0647 4.64361ZM6.0647 3.58082C4.39215 3.58082 3.03636 4.9366 3.03636 6.60916C3.03636 8.28171 4.39215 9.6375 6.0647 9.6375C7.73725 9.6375 9.09304 8.28171 9.09304 6.60916C9.09304 4.9366 7.73725 3.58082 6.0647 3.58082ZM9.21311 9.04967C9.07314 9.04962 8.93629 9.09107 8.81988 9.16879C8.70347 9.2465 8.61271 9.357 8.5591 9.48629C8.50548 9.61559 8.49141 9.75788 8.51866 9.89517C8.54591 10.0325 8.61327 10.1586 8.7122 10.2576C8.81114 10.3566 8.93721 10.4241 9.07448 10.4514C9.21175 10.4788 9.35406 10.4648 9.4834 10.4113C9.61273 10.3578 9.7233 10.2671 9.80111 10.1508C9.87892 10.0344 9.92048 9.89764 9.92054 9.75766V9.75738C9.92045 9.56976 9.8459 9.38985 9.71326 9.25715C9.58062 9.12446 9.40073 9.04983 9.21311 9.04967ZM1.26421 4.22654C1.2904 3.65155 1.38617 3.33902 1.46709 3.13133C1.57428 2.85599 1.70195 2.65953 1.90823 2.45297C2.1145 2.24641 2.31077 2.11855 2.58612 2.01183C2.79371 1.93087 3.10633 1.83509 3.68132 1.80895C4.30297 1.78036 4.48972 1.77465 6.06465 1.77465C7.63959 1.77465 7.82581 1.78083 8.44798 1.80895C9.02297 1.83514 9.33498 1.93162 9.54319 2.01183C9.81853 2.11902 10.015 2.24669 10.2216 2.45297C10.4281 2.65924 10.556 2.85551 10.6627 3.13133C10.7437 3.33893 10.8394 3.65155 10.8656 4.22654C10.8942 4.84819 10.8999 5.03493 10.8999 6.60916C10.8999 8.18339 10.8937 8.37032 10.8656 8.99249C10.8394 9.56748 10.7429 9.87949 10.6627 10.0877C10.556 10.363 10.4278 10.5595 10.2216 10.7661C10.0153 10.9726 9.81853 11.1 9.54319 11.2072C9.33559 11.2882 9.02297 11.3839 8.44798 11.4101C7.82581 11.4387 7.63959 11.4444 6.06465 11.4444C4.48972 11.4444 4.30349 11.4387 3.68132 11.4101C3.10633 11.3839 2.79381 11.2876 2.58612 11.2072C2.31077 11.1 2.11431 10.9723 1.90823 10.7661C1.70214 10.5598 1.57428 10.363 1.46709 10.0877C1.38613 9.8801 1.29035 9.56748 1.26421 8.99249C1.23562 8.37084 1.22991 8.1841 1.22991 6.60916C1.22991 5.03422 1.23562 4.848 1.26421 4.22654ZM11.9266 4.1777C11.898 3.54987 11.7984 3.12086 11.6526 2.7462C11.5021 2.35818 11.3001 2.02971 10.9724 1.70148C10.6447 1.37324 10.3157 1.17178 9.92766 1.02122C9.55276 0.875437 9.12399 0.775886 8.49615 0.747294C7.86733 0.718231 7.66629 0.711578 6.0647 0.711578C4.46311 0.711578 4.26207 0.718231 3.63325 0.747294C3.00537 0.775886 2.57663 0.875437 2.20174 1.02122C1.81396 1.17178 1.48459 1.37329 1.15702 1.70148C0.829442 2.02966 0.627744 2.35818 0.476766 2.7462C0.330977 3.12157 0.231427 3.54987 0.202835 4.1777C0.174244 4.80686 0.167119 5.00756 0.167119 6.60916C0.167119 8.21075 0.173772 8.41179 0.202835 9.04061C0.231427 9.66849 0.330977 10.0972 0.476766 10.4721C0.627744 10.8599 0.8293 11.1886 1.15702 11.5168C1.48473 11.8451 1.81396 12.0461 2.20174 12.1971C2.57663 12.3429 3.00541 12.4429 3.63325 12.471C4.26254 12.4996 4.46311 12.5063 6.0647 12.5063C7.66629 12.5063 7.86733 12.4996 8.49615 12.471C9.12403 12.4424 9.553 12.3429 9.92766 12.1971C10.3154 12.0461 10.6441 11.8446 10.9724 11.5168C11.3006 11.1891 11.5021 10.8599 11.6526 10.4726C11.7984 10.0972 11.8984 9.66845 11.9266 9.04109C11.9552 8.41226 11.9623 8.21122 11.9623 6.60963C11.9623 5.00804 11.9556 4.80686 11.9266 4.1777Z" fill="url(#paint0_radial_1_87)"/>
<path d="M6.0647 4.64361C7.15037 4.64361 8.03072 5.52349 8.03072 6.60916C8.03072 7.69483 7.15037 8.57518 6.0647 8.57518C4.97903 8.57518 4.09868 7.69483 4.09868 6.60916C4.09868 5.52349 4.97903 4.64361 6.0647 4.64361ZM6.0647 3.58082C4.39215 3.58082 3.03636 4.9366 3.03636 6.60916C3.03636 8.28171 4.39215 9.6375 6.0647 9.6375C7.73725 9.6375 9.09304 8.28171 9.09304 6.60916C9.09304 4.9366 7.73725 3.58082 6.0647 3.58082ZM9.21311 9.04967C9.07314 9.04962 8.93629 9.09107 8.81988 9.16879C8.70347 9.2465 8.61271 9.357 8.5591 9.48629C8.50548 9.61559 8.49141 9.75788 8.51866 9.89517C8.54591 10.0325 8.61327 10.1586 8.7122 10.2576C8.81114 10.3566 8.93721 10.4241 9.07448 10.4514C9.21175 10.4788 9.35406 10.4648 9.4834 10.4113C9.61273 10.3578 9.7233 10.2671 9.80111 10.1508C9.87892 10.0344 9.92048 9.89764 9.92054 9.75766V9.75738C9.92045 9.56976 9.8459 9.38985 9.71326 9.25715C9.58062 9.12446 9.40073 9.04983 9.21311 9.04967ZM1.26421 4.22654C1.2904 3.65155 1.38617 3.33902 1.46709 3.13133C1.57428 2.85599 1.70195 2.65953 1.90823 2.45297C2.1145 2.24641 2.31077 2.11855 2.58612 2.01183C2.79371 1.93087 3.10633 1.83509 3.68132 1.80895C4.30297 1.78036 4.48972 1.77465 6.06465 1.77465C7.63959 1.77465 7.82581 1.78083 8.44798 1.80895C9.02297 1.83514 9.33498 1.93162 9.54319 2.01183C9.81853 2.11902 10.015 2.24669 10.2216 2.45297C10.4281 2.65924 10.556 2.85551 10.6627 3.13133C10.7437 3.33893 10.8394 3.65155 10.8656 4.22654C10.8942 4.84819 10.8999 5.03493 10.8999 6.60916C10.8999 8.18339 10.8937 8.37032 10.8656 8.99249C10.8394 9.56748 10.7429 9.87949 10.6627 10.0877C10.556 10.363 10.4278 10.5595 10.2216 10.7661C10.0153 10.9726 9.81853 11.1 9.54319 11.2072C9.33559 11.2882 9.02297 11.3839 8.44798 11.4101C7.82581 11.4387 7.63959 11.4444 6.06465 11.4444C4.48972 11.4444 4.30349 11.4387 3.68132 11.4101C3.10633 11.3839 2.79381 11.2876 2.58612 11.2072C2.31077 11.1 2.11431 10.9723 1.90823 10.7661C1.70214 10.5598 1.57428 10.363 1.46709 10.0877C1.38613 9.8801 1.29035 9.56748 1.26421 8.99249C1.23562 8.37084 1.22991 8.1841 1.22991 6.60916C1.22991 5.03422 1.23562 4.848 1.26421 4.22654ZM11.9266 4.1777C11.898 3.54987 11.7984 3.12086 11.6526 2.7462C11.5021 2.35818 11.3001 2.02971 10.9724 1.70148C10.6447 1.37324 10.3157 1.17178 9.92766 1.02122C9.55276 0.875437 9.12399 0.775886 8.49615 0.747294C7.86733 0.718231 7.66629 0.711578 6.0647 0.711578C4.46311 0.711578 4.26207 0.718231 3.63325 0.747294C3.00537 0.775886 2.57663 0.875437 2.20174 1.02122C1.81396 1.17178 1.48459 1.37329 1.15702 1.70148C0.829442 2.02966 0.627744 2.35818 0.476766 2.7462C0.330977 3.12157 0.231427 3.54987 0.202835 4.1777C0.174244 4.80686 0.167119 5.00756 0.167119 6.60916C0.167119 8.21075 0.173772 8.41179 0.202835 9.04061C0.231427 9.66849 0.330977 10.0972 0.476766 10.4721C0.627744 10.8599 0.8293 11.1886 1.15702 11.5168C1.48473 11.8451 1.81396 12.0461 2.20174 12.1971C2.57663 12.3429 3.00541 12.4429 3.63325 12.471C4.26254 12.4996 4.46311 12.5063 6.0647 12.5063C7.66629 12.5063 7.86733 12.4996 8.49615 12.471C9.12403 12.4424 9.553 12.3429 9.92766 12.1971C10.3154 12.0461 10.6441 11.8446 10.9724 11.5168C11.3006 11.1891 11.5021 10.8599 11.6526 10.4726C11.7984 10.0972 11.8984 9.66845 11.9266 9.04109C11.9552 8.41226 11.9623 8.21122 11.9623 6.60963C11.9623 5.00804 11.9556 4.80686 11.9266 4.1777Z" fill="url(#paint1_radial_1_87)"/>
<defs>
<radialGradient id="paint0_radial_1_87" cx="0" cy="0" r="1" gradientUnits="userSpaceOnUse" gradientTransform="translate(0.111398 2.27864) rotate(90) scale(15.3976 15.3976)">
<stop offset="0.09" stop-color="#FA8F21"/>
<stop offset="0.78" stop-color="#D82D7E"/>
</radialGradient>
<radialGradient id="paint1_radial_1_87" cx="0" cy="0" r="1" gradientUnits="userSpaceOnUse" gradientTransform="translate(-0.417024 7.86482) rotate(90) scale(12.1354)">
<stop offset="0.64" stop-color="#8C3AAA" stop-opacity="0"/>
<stop offset="1" stop-color="#8C3AAA"/>
</radialGradient>
</defs>
</svg>
