<svg width="12" height="12" viewBox="0 0 12 12" fill="none" xmlns="http://www.w3.org/2000/svg">
<path d="M11.962 6.04263C11.962 2.7856 9.32173 0.145294 6.0647 0.145294C2.80768 0.145294 0.167373 2.7856 0.167373 6.04263C0.167373 9.29965 2.80768 11.94 6.0647 11.94C9.32173 11.94 11.962 9.29961 11.962 6.04263ZM3.21361 4.46921V3.17439H7.39681V4.46921L3.21361 4.46921ZM7.94463 3.81563C7.94463 3.39275 8.29023 3.04994 8.7165 3.04994C9.1428 3.04994 9.48839 3.3928 9.48839 3.81563C9.48839 4.23845 9.1428 4.58127 8.7165 4.58127C8.29021 4.58129 7.94463 4.23848 7.94463 3.81563ZM3.21361 9.32154V8.033H5.40944C6.01169 8.033 6.34788 7.80423 6.34788 7.32802C6.34788 6.80974 5.99774 6.53898 5.40944 6.53898L3.21361 6.53898V5.2971L7.39681 5.2971V6.53898H6.8334C6.8334 6.53898 7.52441 6.91253 7.52441 7.79954C7.52441 8.68658 6.98279 9.32156 5.86235 9.32156L3.21361 9.32154Z" fill="url(#paint0_linear_1_85)"/>
<defs>
<linearGradient id="paint0_linear_1_85" x1="10.2347" y1="1.87258" x2="1.89466" y2="10.2127" gradientUnits="userSpaceOnUse">
<stop stop-color="#2489BE"/>
<stop offset="1" stop-color="#0575B3"/>
</linearGradient>
</defs>
</svg>
