<svg width="24" height="25" viewBox="0 0 24 25" fill="none" xmlns="http://www.w3.org/2000/svg">
<path d="M10.2493 6.83911C10.2493 4.76804 8.57034 3.08911 6.49927 3.08911C4.4282 3.08911 2.74927 4.76804 2.74927 6.83911C2.74927 8.91018 4.4282 10.5891 6.49927 10.5891C8.57034 10.5891 10.2493 8.91018 10.2493 6.83911Z" stroke="#1B1B1B" stroke-width="1.5"/>
<path d="M21.2493 6.83911C21.2493 4.76804 19.5703 3.08911 17.4993 3.08911C15.4282 3.08911 13.7493 4.76804 13.7493 6.83911C13.7493 8.91018 15.4282 10.5891 17.4993 10.5891C19.5703 10.5891 21.2493 8.91018 21.2493 6.83911Z" stroke="#1B1B1B" stroke-width="1.5"/>
<path d="M21.2493 17.8391C21.2493 15.768 19.5703 14.0891 17.4993 14.0891C15.4282 14.0891 13.7493 15.768 13.7493 17.8391C13.7493 19.9102 15.4282 21.5891 17.4993 21.5891C19.5703 21.5891 21.2493 19.9102 21.2493 17.8391Z" stroke="#1B1B1B" stroke-width="1.5"/>
<path d="M10.2493 17.8391C10.2493 15.768 8.57034 14.0891 6.49927 14.0891C4.4282 14.0891 2.74927 15.768 2.74927 17.8391C2.74927 19.9102 4.4282 21.5891 6.49927 21.5891C8.57034 21.5891 10.2493 19.9102 10.2493 17.8391Z" stroke="#1B1B1B" stroke-width="1.5"/>
</svg>
