<svg width="12" height="17" viewBox="0 0 12 17" fill="none" xmlns="http://www.w3.org/2000/svg">
<g clip-path="url(#clip0_1_83)">
<path d="M0.478108 6.38928C0.478108 11.0315 4.3254 13.5701 7.66164 13.5701C7.7709 13.5701 7.87966 13.5679 7.98797 13.563C8.34553 14.057 8.78824 14.4833 9.29536 14.8219C9.09424 14.3697 8.95887 13.8831 8.89784 13.3726C9.2104 13.8936 9.70487 14.2937 10.2943 14.4824C10.0003 13.987 9.79302 13.445 9.68144 12.8798C10.1722 12.4192 10.4791 11.7636 10.4791 11.0376C10.4791 9.64381 9.34846 8.51359 7.95474 8.51359C7.7566 8.51359 7.56393 8.53577 7.37906 8.57908C7.48465 6.48149 8.4893 4.6215 10.0169 3.3767C9.63163 3.1525 9.19373 3.03457 8.74795 3.03496C7.87201 3.03496 7.09876 3.48051 6.64636 4.15808C6.65861 3.75729 6.7669 3.36529 6.96214 3.01506C6.95154 3.01469 6.94122 3.01469 6.92989 3.01469C5.70719 3.01469 4.68631 3.88462 4.45499 5.03944C4.3959 4.82255 4.36602 4.59874 4.36615 4.37395C4.36615 4.21161 4.38213 4.05339 4.41166 3.89963C3.40851 4.22093 2.67851 5.15263 2.65811 6.25727C1.98081 5.39345 1.5774 4.30532 1.5774 3.12267C1.57722 2.92149 1.5889 2.72047 1.61237 2.52066C0.896175 3.63762 0.478283 4.96391 0.478283 6.3894" fill="#1DA1F2"/>
</g>
<defs>
<clipPath id="clip0_1_83">
<rect width="16.5873" height="11.1732" fill="white" transform="translate(11.6513 0.0515442) rotate(90)"/>
</clipPath>
</defs>
</svg>
