<svg width="31" height="31" viewBox="0 0 31 31" fill="none" xmlns="http://www.w3.org/2000/svg">
<path opacity="0.4" d="M14.4337 3.96781C15.2962 3.23031 16.7087 3.23031 17.5837 3.96781L19.5587 5.66781C19.9337 5.99281 20.6337 6.25531 21.1337 6.25531H23.2587C24.5837 6.25531 25.6712 7.34281 25.6712 8.66781V10.7928C25.6712 11.2803 25.9337 11.9928 26.2587 12.3678L27.9587 14.3428C28.6962 15.2053 28.6962 16.6178 27.9587 17.4928L26.2587 19.4678C25.9337 19.8428 25.6712 20.5428 25.6712 21.0428V23.1678C25.6712 24.4928 24.5837 25.5803 23.2587 25.5803H21.1337C20.6462 25.5803 19.9337 25.8428 19.5587 26.1678L17.5837 27.8678C16.7212 28.6053 15.3087 28.6053 14.4337 27.8678L12.4587 26.1678C12.0837 25.8428 11.3837 25.5803 10.8837 25.5803H8.72119C7.39619 25.5803 6.30869 24.4928 6.30869 23.1678V21.0303C6.30869 20.5428 6.04619 19.8428 5.73369 19.4678L4.04619 17.4803C3.32119 16.6178 3.32119 15.2178 4.04619 14.3553L5.73369 12.3678C6.04619 11.9928 6.30869 11.2928 6.30869 10.8053V8.65531C6.30869 7.33031 7.39619 6.24281 8.72119 6.24281H10.8837C11.3712 6.24281 12.0837 5.98031 12.4587 5.65531L14.4337 3.96781Z" fill="#3F51DC"/>
<path d="M14.4837 19.8678C14.2337 19.8678 13.9962 19.7678 13.8212 19.5928L10.7962 16.5678C10.4337 16.2053 10.4337 15.6053 10.7962 15.2428C11.1587 14.8803 11.7587 14.8803 12.1212 15.2428L14.4837 17.6053L19.8587 12.2303C20.2212 11.8678 20.8212 11.8678 21.1837 12.2303C21.5462 12.5928 21.5462 13.1928 21.1837 13.5553L15.1462 19.5928C14.9712 19.7678 14.7337 19.8678 14.4837 19.8678Z" fill="#3F51DC"/>
</svg>
